<svg width="82" height="82" viewBox="0 0 82 82" fill="none" xmlns="http://www.w3.org/2000/svg">
<g clip-path="url(#clip0_8_975)">
<rect width="80" height="80" rx="32" fill="#EAF2FF"/>
<path d="M9.99988 65.7624C9.99988 56.9258 17.1633 49.7624 25.9999 49.7624H53.9999C62.8364 49.7624 69.9999 56.9258 69.9999 65.7624V93.7624C69.9999 102.599 62.8364 109.762 53.9999 109.762H25.9999C17.1633 109.762 9.99988 102.599 9.99988 93.7624V65.7624Z" fill="#B4DBFF"/>
<circle cx="39.9999" cy="28" r="16" fill="#B4DBFF"/>
</g>
<rect x="57.5" y="58" width="24" height="24" rx="12" fill="#006FFD"/>
<mask id="mask0_8_975" style="mask-type:alpha" maskUnits="userSpaceOnUse" x="65" y="65" width="9" height="10">
<path d="M67.8922 73.5869L72.059 69.4202L70.0798 67.441L65.9131 71.6078C65.8557 71.6652 65.815 71.7371 65.7951 71.8158L65.3333 74.1667L67.6837 73.7048C67.7626 73.6851 67.8348 73.6443 67.8922 73.5869ZM73.4041 68.075C73.5722 67.9069 73.6666 67.6788 73.6666 67.441C73.6666 67.2032 73.5722 66.9752 73.4041 66.807L72.693 66.0959C72.5248 65.9278 72.2967 65.8333 72.059 65.8333C71.8212 65.8333 71.5931 65.9278 71.425 66.0959L70.7138 66.807L72.693 68.7862L73.4041 68.075Z" fill="#006FFD"/>
</mask>
<g mask="url(#mask0_8_975)">
<rect x="64.5" y="65" width="10" height="10" fill="white"/>
</g>
<defs>
<clipPath id="clip0_8_975">
<rect width="80" height="80" rx="32" fill="white"/>
</clipPath>
</defs>
</svg>
