<svg width="31" height="33" viewBox="0 0 31 33" fill="none" xmlns="http://www.w3.org/2000/svg">
<path d="M8.40306 6.12761H8.90306V5.62761V2.58073C8.90306 2.4588 8.99727 2.37761 9.09184 2.37761H11.3878C11.4823 2.37761 11.5765 2.4588 11.5765 2.58073V5.62761V6.12761H12.0765H19.4235H19.9235V5.62761V2.58073C19.9235 2.4588 20.0177 2.37761 20.1122 2.37761H22.4082C22.5027 2.37761 22.5969 2.4588 22.5969 2.58073V5.62761V6.12761H23.0969H25.852C27.0878 6.12761 28.1071 7.15316 28.1071 8.44011V10.5495C28.1071 10.6714 28.0129 10.7526 27.9184 10.7526H3.58163C3.48707 10.7526 3.39286 10.6714 3.39286 10.5495V8.44011C3.39286 7.15316 4.41215 6.12761 5.64796 6.12761H8.40306ZM3.58163 13.6276H27.9184C28.0129 13.6276 28.1071 13.7088 28.1071 13.8307V29.0651C28.1071 30.3521 27.0878 31.3776 25.852 31.3776H5.64796C4.41215 31.3776 3.39286 30.3521 3.39286 29.0651V13.8307C3.39286 13.7088 3.48707 13.6276 3.58163 13.6276ZM23.0707 18.401L21.4539 16.7371C20.9908 16.2606 20.2325 16.2573 19.7655 16.7302C19.7655 16.7303 19.7655 16.7303 19.7655 16.7303L14.0378 22.5302L11.7544 20.1803C11.2913 19.7038 10.5329 19.7005 10.0659 20.1735L8.436 21.824C7.97469 22.2911 7.97173 23.0473 8.42927 23.5181C8.42928 23.5182 8.42929 23.5182 8.4293 23.5182L13.1704 28.3972C13.6335 28.8737 14.3918 28.877 14.8588 28.404L23.064 20.0952C23.5253 19.6281 23.5283 18.8719 23.0707 18.4011C23.0707 18.401 23.0707 18.401 23.0707 18.401Z" stroke="#204F97"/>
</svg>
