<svg width="16" height="17" viewBox="0 0 16 17" fill="none" xmlns="http://www.w3.org/2000/svg">
<path d="M12.15 5C12.15 7.29108 10.2911 9.15 8 9.15C5.70892 9.15 3.85 7.29108 3.85 5C3.85 2.70892 5.70892 0.85 8 0.85C10.2911 0.85 12.15 2.70892 12.15 5ZM8 11.35C8.83745 11.35 9.63418 11.1691 10.3535 10.85H12C14.0161 10.85 15.65 12.4839 15.65 14.5V15C15.65 15.6348 15.1348 16.15 14.5 16.15H1.5C0.865175 16.15 0.35 15.6348 0.35 15V14.5C0.35 12.4839 1.98392 10.85 4 10.85H5.64682C6.3683 11.1689 7.16207 11.35 8 11.35Z" stroke="black" stroke-width="0.7"/>
</svg>
