<svg width="41" height="40" viewBox="0 0 41 40" fill="none" xmlns="http://www.w3.org/2000/svg">
<rect x="1" y="0.5" width="39" height="39" rx="19.5" stroke="#204F97"/>
<path d="M20.5 5C12.2137 5 5.5 11.7137 5.5 20C5.5 28.2863 12.2137 35 20.5 35C28.7863 35 35.5 28.2863 35.5 20C35.5 11.7137 28.7863 5 20.5 5ZM20.5 10.8065C23.4395 10.8065 25.8226 13.1895 25.8226 16.129C25.8226 19.0685 23.4395 21.4516 20.5 21.4516C17.5605 21.4516 15.1774 19.0685 15.1774 16.129C15.1774 13.1895 17.5605 10.8065 20.5 10.8065ZM20.5 31.6129C16.9496 31.6129 13.7681 30.004 11.6391 27.4879C12.7762 25.3468 15.002 23.871 17.5968 23.871C17.7419 23.871 17.8871 23.8952 18.0262 23.9375C18.8125 24.1915 19.6351 24.3548 20.5 24.3548C21.3649 24.3548 22.1935 24.1915 22.9738 23.9375C23.1129 23.8952 23.2581 23.871 23.4032 23.871C25.998 23.871 28.2238 25.3468 29.3609 27.4879C27.2319 30.004 24.0504 31.6129 20.5 31.6129Z" fill="#204F97"/>
</svg>
