<svg width="18" height="17" viewBox="0 0 18 17" fill="none" xmlns="http://www.w3.org/2000/svg">
<path d="M5.48 1.04054C5.48 0.742008 5.71878 0.5 6.01333 0.5C6.30789 0.5 6.54667 0.742008 6.54667 1.04054V3.63514C6.54667 3.93367 6.30789 4.17568 6.01333 4.17568C5.71878 4.17568 5.48 3.93367 5.48 3.63514V1.04054Z" fill="black"/>
<path d="M11.0267 1.04054C11.0267 0.742008 11.2654 0.5 11.56 0.5C11.8546 0.5 12.0933 0.742008 12.0933 1.04054V3.63514C12.0933 3.93367 11.8546 4.17568 11.56 4.17568C11.2654 4.17568 11.0267 3.93367 11.0267 3.63514V1.04054Z" fill="black"/>
<path d="M12.6571 2.22973V2.69006H14.9429C15.8571 2.69006 16.5429 3.38056 16.5429 4.30122V14.4285C16.5429 15.3492 15.8571 16.0397 14.9429 16.0397H3.05714C2.14286 16.0397 1.45714 15.3492 1.45714 14.4285V4.30122C1.45714 3.38056 2.14286 2.69006 3.05714 2.69006H4.88571V2.22973H3.05714C1.91429 2.22973 1 3.15039 1 4.30122V14.4285C1 15.5793 1.91429 16.5 3.05714 16.5H14.9429C15.8571 16.5 17 15.8095 17 14.4285V4.30122C17 3.38056 16.3143 2.22973 14.9429 2.22973H12.6571Z" fill="black"/>
<path d="M10.3714 2.69006V2.22973H7.17143V2.69006H10.3714Z" fill="black"/>
<path d="M4.62667 5.90541C4.62667 5.78599 4.72218 5.68919 4.84 5.68919H5.90667C6.02449 5.68919 6.12 5.78599 6.12 5.90541V6.77027C6.12 6.88968 6.02449 6.98649 5.90667 6.98649H4.84C4.72218 6.98649 4.62667 6.88968 4.62667 6.77027V5.90541Z" fill="black"/>
<path d="M8.25333 5.90541C8.25333 5.78599 8.34885 5.68919 8.46667 5.68919H9.53333C9.65115 5.68919 9.74667 5.78599 9.74667 5.90541V6.77027C9.74667 6.88968 9.65115 6.98649 9.53333 6.98649H8.46667C8.34885 6.98649 8.25333 6.88968 8.25333 6.77027V5.90541Z" fill="black"/>
<path d="M11.88 5.90541C11.88 5.78599 11.9755 5.68919 12.0933 5.68919H13.16C13.2778 5.68919 13.3733 5.78599 13.3733 5.90541V6.77027C13.3733 6.88968 13.2778 6.98649 13.16 6.98649H12.0933C11.9755 6.98649 11.88 6.88968 11.88 6.77027V5.90541Z" fill="black"/>
<path d="M4.62667 9.58108C4.62667 9.46167 4.72218 9.36487 4.84 9.36487H5.90667C6.02449 9.36487 6.12 9.46167 6.12 9.58108V10.4459C6.12 10.5654 6.02449 10.6622 5.90667 10.6622H4.84C4.72218 10.6622 4.62667 10.5654 4.62667 10.4459V9.58108Z" fill="black"/>
<path d="M8.25333 9.58108C8.25333 9.46167 8.34885 9.36487 8.46667 9.36487H9.53333C9.65115 9.36487 9.74667 9.46167 9.74667 9.58108V10.4459C9.74667 10.5654 9.65115 10.6622 9.53333 10.6622H8.46667C8.34885 10.6622 8.25333 10.5654 8.25333 10.4459V9.58108Z" fill="black"/>
<path d="M11.88 9.58108C11.88 9.46167 11.9755 9.36487 12.0933 9.36487H13.16C13.2778 9.36487 13.3733 9.46167 13.3733 9.58108V10.4459C13.3733 10.5654 13.2778 10.6622 13.16 10.6622H12.0933C11.9755 10.6622 11.88 10.5654 11.88 10.4459V9.58108Z" fill="black"/>
<path d="M4.62667 13.2568C4.62667 13.1373 4.72218 13.0405 4.84 13.0405H5.90667C6.02449 13.0405 6.12 13.1373 6.12 13.2568V14.1216C6.12 14.241 6.02449 14.3378 5.90667 14.3378H4.84C4.72218 14.3378 4.62667 14.241 4.62667 14.1216V13.2568Z" fill="black"/>
<path d="M8.25333 13.2568C8.25333 13.1373 8.34885 13.0405 8.46667 13.0405H9.53333C9.65115 13.0405 9.74667 13.1373 9.74667 13.2568V14.1216C9.74667 14.241 9.65115 14.3378 9.53333 14.3378H8.46667C8.34885 14.3378 8.25333 14.241 8.25333 14.1216V13.2568Z" fill="black"/>
<path d="M11.88 13.2568C11.88 13.1373 11.9755 13.0405 12.0933 13.0405H13.16C13.2778 13.0405 13.3733 13.1373 13.3733 13.2568V14.1216C13.3733 14.241 13.2778 14.3378 13.16 14.3378H12.0933C11.9755 14.3378 11.88 14.241 11.88 14.1216V13.2568Z" fill="black"/>
<path d="M5.48 1.04054C5.48 0.742008 5.71878 0.5 6.01333 0.5C6.30789 0.5 6.54667 0.742008 6.54667 1.04054V3.63514C6.54667 3.93367 6.30789 4.17568 6.01333 4.17568C5.71878 4.17568 5.48 3.93367 5.48 3.63514V1.04054Z" stroke="black" stroke-width="0.5"/>
<path d="M11.0267 1.04054C11.0267 0.742008 11.2654 0.5 11.56 0.5C11.8546 0.5 12.0933 0.742008 12.0933 1.04054V3.63514C12.0933 3.93367 11.8546 4.17568 11.56 4.17568C11.2654 4.17568 11.0267 3.93367 11.0267 3.63514V1.04054Z" stroke="black" stroke-width="0.5"/>
<path d="M12.6571 2.22973V2.69006H14.9429C15.8571 2.69006 16.5429 3.38056 16.5429 4.30122V14.4285C16.5429 15.3492 15.8571 16.0397 14.9429 16.0397H3.05714C2.14286 16.0397 1.45714 15.3492 1.45714 14.4285V4.30122C1.45714 3.38056 2.14286 2.69006 3.05714 2.69006H4.88571V2.22973H3.05714C1.91429 2.22973 1 3.15039 1 4.30122V14.4285C1 15.5793 1.91429 16.5 3.05714 16.5H14.9429C15.8571 16.5 17 15.8095 17 14.4285V4.30122C17 3.38056 16.3143 2.22973 14.9429 2.22973H12.6571Z" stroke="black" stroke-width="0.5"/>
<path d="M10.3714 2.69006V2.22973H7.17143V2.69006H10.3714Z" stroke="black" stroke-width="0.5"/>
<path d="M4.62667 5.90541C4.62667 5.78599 4.72218 5.68919 4.84 5.68919H5.90667C6.02449 5.68919 6.12 5.78599 6.12 5.90541V6.77027C6.12 6.88968 6.02449 6.98649 5.90667 6.98649H4.84C4.72218 6.98649 4.62667 6.88968 4.62667 6.77027V5.90541Z" stroke="black" stroke-width="0.5"/>
<path d="M8.25333 5.90541C8.25333 5.78599 8.34885 5.68919 8.46667 5.68919H9.53333C9.65115 5.68919 9.74667 5.78599 9.74667 5.90541V6.77027C9.74667 6.88968 9.65115 6.98649 9.53333 6.98649H8.46667C8.34885 6.98649 8.25333 6.88968 8.25333 6.77027V5.90541Z" stroke="black" stroke-width="0.5"/>
<path d="M11.88 5.90541C11.88 5.78599 11.9755 5.68919 12.0933 5.68919H13.16C13.2778 5.68919 13.3733 5.78599 13.3733 5.90541V6.77027C13.3733 6.88968 13.2778 6.98649 13.16 6.98649H12.0933C11.9755 6.98649 11.88 6.88968 11.88 6.77027V5.90541Z" stroke="black" stroke-width="0.5"/>
<path d="M4.62667 9.58108C4.62667 9.46167 4.72218 9.36487 4.84 9.36487H5.90667C6.02449 9.36487 6.12 9.46167 6.12 9.58108V10.4459C6.12 10.5654 6.02449 10.6622 5.90667 10.6622H4.84C4.72218 10.6622 4.62667 10.5654 4.62667 10.4459V9.58108Z" stroke="black" stroke-width="0.5"/>
<path d="M8.25333 9.58108C8.25333 9.46167 8.34885 9.36487 8.46667 9.36487H9.53333C9.65115 9.36487 9.74667 9.46167 9.74667 9.58108V10.4459C9.74667 10.5654 9.65115 10.6622 9.53333 10.6622H8.46667C8.34885 10.6622 8.25333 10.5654 8.25333 10.4459V9.58108Z" stroke="black" stroke-width="0.5"/>
<path d="M11.88 9.58108C11.88 9.46167 11.9755 9.36487 12.0933 9.36487H13.16C13.2778 9.36487 13.3733 9.46167 13.3733 9.58108V10.4459C13.3733 10.5654 13.2778 10.6622 13.16 10.6622H12.0933C11.9755 10.6622 11.88 10.5654 11.88 10.4459V9.58108Z" stroke="black" stroke-width="0.5"/>
<path d="M4.62667 13.2568C4.62667 13.1373 4.72218 13.0405 4.84 13.0405H5.90667C6.02449 13.0405 6.12 13.1373 6.12 13.2568V14.1216C6.12 14.241 6.02449 14.3378 5.90667 14.3378H4.84C4.72218 14.3378 4.62667 14.241 4.62667 14.1216V13.2568Z" stroke="black" stroke-width="0.5"/>
<path d="M8.25333 13.2568C8.25333 13.1373 8.34885 13.0405 8.46667 13.0405H9.53333C9.65115 13.0405 9.74667 13.1373 9.74667 13.2568V14.1216C9.74667 14.241 9.65115 14.3378 9.53333 14.3378H8.46667C8.34885 14.3378 8.25333 14.241 8.25333 14.1216V13.2568Z" stroke="black" stroke-width="0.5"/>
<path d="M11.88 13.2568C11.88 13.1373 11.9755 13.0405 12.0933 13.0405H13.16C13.2778 13.0405 13.3733 13.1373 13.3733 13.2568V14.1216C13.3733 14.241 13.2778 14.3378 13.16 14.3378H12.0933C11.9755 14.3378 11.88 14.241 11.88 14.1216V13.2568Z" stroke="black" stroke-width="0.5"/>
</svg>
