<svg width="21" height="23" viewBox="0 0 21 23" fill="none" xmlns="http://www.w3.org/2000/svg">
<path d="M21 17.8815V19.0229C21 19.1556 20.9418 19.283 20.8381 19.3768C20.7345 19.4707 20.5939 19.5235 20.4474 19.5235H0.552632C0.406065 19.5235 0.265501 19.4707 0.161863 19.3768C0.0582241 19.283 4.42428e-07 19.1556 4.42428e-07 19.0229V17.8815C-0.000304154 17.5138 0.15668 17.1603 0.437992 16.8952C0.719304 16.6301 1.10306 16.474 1.50868 16.4598C1.58712 16.3311 1.63776 16.1901 1.6579 16.0443V10.0721C1.65467 8.89475 1.94878 7.73233 2.51775 6.67377C3.08671 5.61522 3.91544 4.68858 4.94053 3.96476C5.98012 3.2305 7.19146 2.72152 8.48175 2.47683C9.77204 2.23213 11.107 2.25821 12.3845 2.55307C15.9158 3.33401 18.7895 6.7381 18.7895 10.1372V15.9141C18.9558 16.1405 19.1793 16.3275 19.4416 16.4598C19.8559 16.4624 20.2523 16.6134 20.5442 16.8797C20.8362 17.146 21 17.5062 21 17.8815ZM10.2347 1.81218C10.8812 1.81649 11.5256 1.88022 12.1579 2.00241V1.5018C12.1579 1.1035 11.9832 0.721511 11.6723 0.439868C11.3614 0.158225 10.9397 0 10.5 0C10.0603 0 9.63861 0.158225 9.32769 0.439868C9.01678 0.721511 8.8421 1.1035 8.8421 1.5018V1.9123C9.30291 1.84751 9.76842 1.81405 10.2347 1.81218ZM6.67579 20.0241C6.81522 20.8523 7.27764 21.6079 7.97922 22.1539C8.68079 22.6998 9.57509 23 10.5 23C11.4249 23 12.3192 22.6998 13.0208 22.1539C13.7224 21.6079 14.1848 20.8523 14.3242 20.0241H6.67579Z" fill="#204F97"/>
</svg>
