<svg width="16" height="16" viewBox="0 0 16 16" fill="none" xmlns="http://www.w3.org/2000/svg">
<path d="M1.14286 14.5C1.14286 14.8978 1.32347 15.2794 1.64496 15.5607C1.96645 15.842 2.40249 16 2.85714 16H13.1429C13.5975 16 14.0336 15.842 14.355 15.5607C14.6765 15.2794 14.8571 14.8978 14.8571 14.5V4H1.14286V14.5ZM10.8571 6.5C10.8571 6.36739 10.9173 6.24022 11.0245 6.14645C11.1317 6.05268 11.277 6 11.4286 6C11.5801 6 11.7255 6.05268 11.8326 6.14645C11.9398 6.24022 12 6.36739 12 6.5V13.5C12 13.6326 11.9398 13.7598 11.8326 13.8536C11.7255 13.9473 11.5801 14 11.4286 14C11.277 14 11.1317 13.9473 11.0245 13.8536C10.9173 13.7598 10.8571 13.6326 10.8571 13.5V6.5ZM7.42857 6.5C7.42857 6.36739 7.48878 6.24022 7.59594 6.14645C7.7031 6.05268 7.84845 6 8 6C8.15155 6 8.2969 6.05268 8.40406 6.14645C8.51122 6.24022 8.57143 6.36739 8.57143 6.5V13.5C8.57143 13.6326 8.51122 13.7598 8.40406 13.8536C8.2969 13.9473 8.15155 14 8 14C7.84845 14 7.7031 13.9473 7.59594 13.8536C7.48878 13.7598 7.42857 13.6326 7.42857 13.5V6.5ZM4 6.5C4 6.36739 4.0602 6.24022 4.16737 6.14645C4.27453 6.05268 4.41988 6 4.57143 6C4.72298 6 4.86833 6.05268 4.97549 6.14645C5.08265 6.24022 5.14286 6.36739 5.14286 6.5V13.5C5.14286 13.6326 5.08265 13.7598 4.97549 13.8536C4.86833 13.9473 4.72298 14 4.57143 14C4.41988 14 4.27453 13.9473 4.16737 13.8536C4.0602 13.7598 4 13.6326 4 13.5V6.5ZM15.4286 1.00001H11.1429L10.8071 0.41563C10.736 0.290697 10.6265 0.185606 10.4908 0.11218C10.3552 0.0387537 10.1988 -9.46239e-05 10.0393 5.47897e-06H5.95714C5.79799 -0.00052985 5.64189 0.0381736 5.50672 0.111682C5.37154 0.18519 5.26277 0.290529 5.19286 0.41563L4.85714 1.00001H0.571429C0.419876 1.00001 0.274531 1.05268 0.167368 1.14645C0.0602039 1.24022 0 1.3674 0 1.5L0 2.5C0 2.63261 0.0602039 2.75979 0.167368 2.85356C0.274531 2.94733 0.419876 3 0.571429 3H15.4286C15.5801 3 15.7255 2.94733 15.8326 2.85356C15.9398 2.75979 16 2.63261 16 2.5V1.5C16 1.3674 15.9398 1.24022 15.8326 1.14645C15.7255 1.05268 15.5801 1.00001 15.4286 1.00001Z" fill="white"/>
<path d="M1.14286 14.5C1.14286 14.8978 1.32347 15.2794 1.64496 15.5607C1.96645 15.842 2.40249 16 2.85714 16H13.1429C13.5975 16 14.0336 15.842 14.355 15.5607C14.6765 15.2794 14.8571 14.8978 14.8571 14.5V4H1.14286V14.5ZM10.8571 6.5C10.8571 6.36739 10.9173 6.24022 11.0245 6.14645C11.1317 6.05268 11.277 6 11.4286 6C11.5801 6 11.7255 6.05268 11.8326 6.14645C11.9398 6.24022 12 6.36739 12 6.5V13.5C12 13.6326 11.9398 13.7598 11.8326 13.8536C11.7255 13.9473 11.5801 14 11.4286 14C11.277 14 11.1317 13.9473 11.0245 13.8536C10.9173 13.7598 10.8571 13.6326 10.8571 13.5V6.5ZM7.42857 6.5C7.42857 6.36739 7.48878 6.24022 7.59594 6.14645C7.7031 6.05268 7.84845 6 8 6C8.15155 6 8.2969 6.05268 8.40406 6.14645C8.51122 6.24022 8.57143 6.36739 8.57143 6.5V13.5C8.57143 13.6326 8.51122 13.7598 8.40406 13.8536C8.2969 13.9473 8.15155 14 8 14C7.84845 14 7.7031 13.9473 7.59594 13.8536C7.48878 13.7598 7.42857 13.6326 7.42857 13.5V6.5ZM4 6.5C4 6.36739 4.0602 6.24022 4.16737 6.14645C4.27453 6.05268 4.41988 6 4.57143 6C4.72298 6 4.86833 6.05268 4.97549 6.14645C5.08265 6.24022 5.14286 6.36739 5.14286 6.5V13.5C5.14286 13.6326 5.08265 13.7598 4.97549 13.8536C4.86833 13.9473 4.72298 14 4.57143 14C4.41988 14 4.27453 13.9473 4.16737 13.8536C4.0602 13.7598 4 13.6326 4 13.5V6.5ZM15.4286 1.00001H11.1429L10.8071 0.41563C10.736 0.290697 10.6265 0.185606 10.4908 0.11218C10.3552 0.0387537 10.1988 -9.46239e-05 10.0393 5.47897e-06H5.95714C5.79799 -0.00052985 5.64189 0.0381736 5.50672 0.111682C5.37154 0.18519 5.26277 0.290529 5.19286 0.41563L4.85714 1.00001H0.571429C0.419876 1.00001 0.274531 1.05268 0.167368 1.14645C0.0602039 1.24022 0 1.3674 0 1.5L0 2.5C0 2.63261 0.0602039 2.75979 0.167368 2.85356C0.274531 2.94733 0.419876 3 0.571429 3H15.4286C15.5801 3 15.7255 2.94733 15.8326 2.85356C15.9398 2.75979 16 2.63261 16 2.5V1.5C16 1.3674 15.9398 1.24022 15.8326 1.14645C15.7255 1.05268 15.5801 1.00001 15.4286 1.00001Z" fill="#FF0000"/>
</svg>
