<svg width="25" height="28" viewBox="0 0 25 28" fill="none" xmlns="http://www.w3.org/2000/svg">
<path d="M12.125 25.9083C10.7621 24.0559 9.60267 22.5075 8.61674 21.1908M12.125 25.9083L11.7223 26.2046M12.125 25.9083C12.1249 25.908 12.1247 25.9078 12.1245 25.9076L11.7223 26.2046M12.125 25.9083C12.4219 26.3093 13.0784 26.3092 13.3751 25.9081M8.61674 21.1908L11.7223 26.2046M8.61674 21.1908C6.85261 18.8348 5.64398 17.2207 4.81914 15.9349C4.18287 14.943 3.79596 14.177 3.5645 13.4443C3.33449 12.7161 3.25 11.9955 3.25 11.084C3.25 6.21235 7.47239 2.20898 12.75 2.20898C18.0276 2.20898 22.25 6.21235 22.25 11.084C22.25 11.9955 22.1655 12.7161 21.9355 13.4443C21.704 14.177 21.3171 14.943 20.6809 15.9349C19.856 17.2207 18.6474 18.8348 16.8833 21.1908C15.8974 22.5074 14.738 24.0558 13.3751 25.9081M8.61674 21.1908L13.7777 26.2046M11.7223 26.2046C12.2189 26.8771 13.2811 26.8771 13.7777 26.2046M13.3751 25.9081C13.3751 25.9081 13.375 25.9082 13.375 25.9083L13.7777 26.2046M13.3751 25.9081C13.3752 25.9079 13.3754 25.9077 13.3755 25.9076L13.7777 26.2046M12.75 15.4902C15.2965 15.4902 17.4167 13.5474 17.4167 11.084C17.4167 8.62056 15.2965 6.67773 12.75 6.67773C10.2035 6.67773 8.08333 8.62056 8.08333 11.084C8.08333 13.5474 10.2035 15.4902 12.75 15.4902Z" stroke="#204F97"/>
</svg>
