<svg width="23" height="31" viewBox="0 0 23 31" fill="none" xmlns="http://www.w3.org/2000/svg">
<path d="M19.6733 5.51301L19.6733 5.51302C20.1089 6.00754 20.1089 6.83231 19.6733 7.32682L15.3641 12.2184C15.1227 12.4923 14.9896 12.8448 14.9896 13.2099V27.4199C14.9896 28.1717 14.4655 28.6699 13.9479 28.6699H13.1771C12.6595 28.6699 12.1354 28.1717 12.1354 27.4199V21.6803C12.1354 21.1913 11.739 20.7949 11.25 20.7949C10.761 20.7949 10.3646 21.1913 10.3646 21.6803V27.4199C10.3646 28.1717 9.84054 28.6699 9.32291 28.6699H8.55208C8.03446 28.6699 7.51041 28.1717 7.51041 27.4199V13.2099C7.51041 12.8448 7.37727 12.4923 7.13594 12.2184L2.82673 7.32688C2.39109 6.83236 2.39109 6.00754 2.82673 5.51302L2.82674 5.51301C3.22969 5.05558 3.85363 5.05558 4.25657 5.51301L4.25658 5.51302L8.13141 9.91147C8.41617 10.2347 8.82616 10.4199 9.25695 10.4199H13.243C13.6738 10.4199 14.0838 10.2347 14.3685 9.91148L18.2434 5.51303L18.2434 5.51301C18.6464 5.05558 19.2703 5.05558 19.6733 5.51301ZM8.28125 5.10742C8.28125 3.14748 9.66805 1.66992 11.25 1.66992C12.832 1.66992 14.2188 3.14748 14.2188 5.10742C14.2188 7.06731 12.8319 8.54492 11.25 8.54492C9.66805 8.54492 8.28125 7.06731 8.28125 5.10742Z" stroke="#204F97"/>
</svg>
