<svg width="26" height="33" viewBox="0 0 26 33" fill="none" xmlns="http://www.w3.org/2000/svg">
<path d="M18.762 1.55874L18.7618 1.55856C18.3998 1.20048 17.9112 1.00391 17.4031 1.00391H17.0417H16.5417V1.50391V9.00391V9.50391H17.0417H24.625H25.125V9.00391V8.64648C25.125 8.14375 24.9234 7.65843 24.5621 7.30093C24.562 7.3009 24.562 7.30088 24.562 7.30085C24.562 7.30082 24.5619 7.30078 24.5619 7.30075L18.762 1.55874ZM15.6458 1.50391V1.00391H15.1458H3.29688C2.238 1.00391 1.375 1.84952 1.375 2.91016V30.0977C1.375 31.1583 2.238 32.0039 3.29688 32.0039H23.2031C24.262 32.0039 25.125 31.1583 25.125 30.0977V10.8789V10.3789H24.625H16.5677C16.0566 10.3789 15.6458 9.96476 15.6458 9.47266V1.50391ZM14.1847 25.372L13.6979 25.3849V25.8719V27.2539H12.8021V25.8619V25.3867L12.3275 25.3626C11.7719 25.3343 11.2315 25.1469 10.7802 24.8235L11.4341 24.2065C11.4367 24.2076 11.4396 24.209 11.4427 24.211L11.4431 24.2112C11.7491 24.4004 12.0998 24.5039 12.4656 24.5039H14.131C14.8381 24.5039 15.3301 23.8849 15.3301 23.2311C15.3301 22.6893 14.9964 22.1663 14.452 22.0056L11.7868 21.2148C11.7867 21.2148 11.7867 21.2148 11.7867 21.2148C10.9028 20.9524 10.2735 20.1061 10.2735 19.1518C10.2735 17.9794 11.1928 17.0404 12.3147 17.0108L12.8015 16.9979V16.5109V15.1289H13.6973V16.5209V16.9961L14.172 17.0203C14.7279 17.0485 15.2682 17.2355 15.7193 17.5593L15.0653 18.1763C15.0628 18.1753 15.0598 18.1738 15.0567 18.1719L14.7933 18.5969L15.0571 18.1721C14.7501 17.9815 14.3989 17.8789 14.0338 17.8789H12.3684C11.6613 17.8789 11.1693 18.4979 11.1693 19.1518C11.1693 19.6935 11.503 20.2165 12.0474 20.3772L14.7126 21.168C14.7127 21.168 14.7127 21.168 14.7127 21.168C15.5966 21.4304 16.2259 22.2768 16.2259 23.2311C16.2259 24.4039 15.3067 25.3425 14.1847 25.372ZM6.16667 5.75391H10.8542V6.62891H6.16667V5.75391ZM10.8542 10.3789H6.16667V9.50391H10.8542V10.3789Z" stroke="#204F97"/>
</svg>
