<svg width="21" height="20" viewBox="0 0 21 20" fill="none" xmlns="http://www.w3.org/2000/svg">
<path d="M7.85608 17.7939V15.2114C7.85606 14.5546 8.39157 14.0208 9.05506 14.0164H11.4854C12.1521 14.0164 12.6925 14.5514 12.6925 15.2114V17.802C12.6924 18.3597 13.142 18.8155 13.7052 18.8286H15.3254C16.9406 18.8286 18.25 17.5323 18.25 15.9333V8.58673C18.2414 7.95767 17.943 7.36695 17.4399 6.98269L11.8986 2.56355C10.9278 1.79408 9.54786 1.79408 8.57709 2.56355L3.06013 6.99071C2.55506 7.37342 2.25622 7.96512 2.25 8.59475V15.9333C2.25 17.5323 3.55937 18.8286 5.17456 18.8286H6.79481C7.37198 18.8286 7.83987 18.3653 7.83987 17.7939" stroke="#200E32" stroke-width="1.5" stroke-linecap="round" stroke-linejoin="round"/>
</svg>
