<svg width="12" height="17" viewBox="0 0 12 17" fill="none" xmlns="http://www.w3.org/2000/svg">
<path d="M5.67148 15.9784C4.85301 14.7919 4.15703 13.8005 3.56541 12.9577C2.50756 11.4508 1.78332 10.419 1.28891 9.59697C0.907875 8.96339 0.67658 8.47478 0.538229 8.0076C0.400674 7.54311 0.35 7.08292 0.35 6.5C0.35 3.37958 2.87958 0.85 6 0.85C9.12042 0.85 11.65 3.37958 11.65 6.5C11.65 7.08292 11.5993 7.54311 11.4618 8.0076C11.3234 8.47478 11.0921 8.96339 10.7111 9.59697C10.2167 10.419 9.49244 11.4508 8.43459 12.9577C7.84299 13.8004 7.14705 14.7918 6.32862 15.9783C6.16973 16.2074 5.82984 16.2072 5.67115 15.978L5.38337 16.1772L5.67148 15.9784ZM6 9.35C7.57402 9.35 8.85 8.07402 8.85 6.5C8.85 4.92598 7.57402 3.65 6 3.65C4.42598 3.65 3.15 4.92598 3.15 6.5C3.15 8.07402 4.42598 9.35 6 9.35Z" stroke="black" stroke-width="0.7"/>
</svg>
