<svg width="35" height="22" viewBox="0 0 35 22" fill="none" xmlns="http://www.w3.org/2000/svg">
<path d="M2.5 3C2.5 1.89543 3.39543 1 4.5 1H20.5C21.6046 1 22.5 1.89543 22.5 3C22.5 4.10457 21.6046 5 20.5 5H4.5C3.39543 5 2.5 4.10457 2.5 3Z" fill="#204F97"/>
<path d="M2.5 11C2.5 9.89543 3.39543 9 4.5 9H25.5C26.6046 9 27.5 9.89543 27.5 11C27.5 12.1046 26.6046 13 25.5 13H4.5C3.39543 13 2.5 12.1046 2.5 11Z" fill="#204F97"/>
<path d="M2.5 19C2.5 17.8954 3.39543 17 4.5 17H30.5C31.6046 17 32.5 17.8954 32.5 19C32.5 20.1046 31.6046 21 30.5 21H4.5C3.39543 21 2.5 20.1046 2.5 19Z" fill="#204F97"/>
</svg>
