<svg width="21" height="20" viewBox="0 0 21 20" fill="none" xmlns="http://www.w3.org/2000/svg">
<path d="M3.63872 17.1714H17.8613C18.0371 17.1714 18.2089 17.1192 18.355 17.0216C18.5012 16.9239 18.6151 16.7851 18.6823 16.6227C18.7496 16.4603 18.7672 16.2816 18.7329 16.1092C18.6986 15.9368 18.614 15.7784 18.4897 15.6541L16.9724 14.1368V9.17142C16.9695 7.67675 16.4292 6.23297 15.45 5.10368C14.4708 3.97439 13.1181 3.23492 11.6389 3.02031V2.06031C11.6389 1.82456 11.5453 1.59847 11.3786 1.43177C11.2119 1.26507 10.9858 1.17142 10.75 1.17142C10.5142 1.17142 10.2881 1.26507 10.1214 1.43177C9.95474 1.59847 9.86109 1.82456 9.86109 2.06031V3.02031C8.38187 3.23492 7.02919 3.97439 6.05001 5.10368C5.07084 6.23297 4.53049 7.67675 4.52763 9.17142V14.1368L3.01026 15.6541C2.88598 15.7784 2.80135 15.9368 2.76707 16.1092C2.73279 16.2816 2.75039 16.4603 2.81765 16.6227C2.88492 16.7851 2.99882 16.9239 3.14497 17.0216C3.29111 17.1192 3.46294 17.1714 3.63872 17.1714ZM4.95483 14.9492C5.12154 14.7825 5.39923 14.7405 5.39928 14.5048V9.17142C5.39928 7.99268 5.89913 6.44936 6.73265 5.61586C7.56616 4.78237 9.55397 3.83808 10.7327 3.83808C11.9115 3.83808 13.8993 4.78237 14.7328 5.61586C15.5664 6.44936 16.1342 7.99268 16.1342 9.17142V14.5048C16.1343 14.7405 16.3439 14.7825 16.5107 14.9492L17.844 16.2825H3.62146L4.95483 14.9492Z" fill="black"/>
<path d="M12.2046 18.5983C11.8188 18.8555 11.2956 19 10.75 19C10.2044 19 9.68117 18.8555 9.29538 18.5983C8.90959 18.3411 8.69286 17.9923 8.69286 17.6286H12.8071C12.8071 17.9923 12.5904 18.3411 12.2046 18.5983Z" fill="black"/>
</svg>
