<svg width="27" height="31" viewBox="0 0 27 31" fill="none" xmlns="http://www.w3.org/2000/svg">
<path d="M17.4418 21.1485L17.7439 21.3391L18.0221 21.1151C18.8889 20.4175 19.9851 20.0013 21.1786 20.0013C23.9749 20.0013 26.25 22.2913 26.25 25.1263C26.25 27.9612 23.9749 30.2513 21.1786 30.2513C18.3822 30.2513 16.1071 27.9612 16.1071 25.1263V25.1261C16.107 24.7515 16.1474 24.378 16.2276 24.0122L16.3028 23.6695L16.0061 23.4823L10.0582 19.7291L9.75614 19.5385L9.47789 19.7625C8.61113 20.4601 7.51487 20.8763 6.32143 20.8763C3.52508 20.8763 1.25 18.5862 1.25 15.7513C1.25 12.9163 3.52508 10.6263 6.32143 10.6263C7.51487 10.6263 8.61113 11.0425 9.47789 11.7401L9.75614 11.9641L10.0582 11.7735L16.0061 8.02029L16.3028 7.83304L16.2276 7.49032C16.149 7.13175 16.1071 6.75914 16.1071 6.37628C16.1071 3.54132 18.3822 1.25128 21.1786 1.25128C23.9749 1.25128 26.25 3.54132 26.25 6.37628C26.25 9.21124 23.9749 11.5013 21.1786 11.5013C19.9851 11.5013 18.8889 11.0851 18.0221 10.3874L17.7439 10.1634L17.4418 10.3541L11.4939 14.1072L11.1973 14.2944L11.2723 14.637C11.433 15.371 11.433 16.1315 11.2723 16.8655L11.1973 17.2081L11.4939 17.3953L17.4418 21.1485Z" stroke="#204F97"/>
</svg>
