<svg width="25" height="25" viewBox="0 0 25 25" fill="none" xmlns="http://www.w3.org/2000/svg">
<path d="M9.86328 23.4375C9.96688 23.4375 10.0662 23.3964 10.1395 23.3231C10.2128 23.2499 10.2539 23.1505 10.2539 23.0469C10.2539 22.9433 10.2128 22.8439 10.1395 22.7707C10.0662 22.6974 9.96688 22.6563 9.86328 22.6563H6.34766C6.24406 22.6563 6.1447 22.6974 6.07144 22.7707C5.99819 22.8439 5.95703 22.9433 5.95703 23.0469C5.95703 23.1505 5.99819 23.2499 6.07144 23.3231C6.1447 23.3964 6.24406 23.4375 6.34766 23.4375H9.86328ZM15.5273 11.0186V11.9534C15.5307 11.9541 15.5336 11.9553 15.5369 11.9559C16.279 11.5226 16.8574 10.8568 17.1827 10.0614C17.5079 9.26608 17.5618 8.38567 17.336 7.5566C17.1102 6.72753 16.6173 5.99607 15.9336 5.47554C15.2499 4.95501 14.4137 4.67448 13.5544 4.67739C12.6951 4.68031 11.8608 4.96651 11.1807 5.49166C10.5005 6.01681 10.0126 6.7516 9.79239 7.58219C9.57219 8.41277 9.63206 9.29279 9.9627 10.0859C10.2933 10.879 10.8763 11.541 11.6213 11.9692V11.028C11.115 10.6246 10.7465 10.0739 10.5668 9.45197C10.387 8.83008 10.4048 8.16772 10.6178 7.5564C10.8307 6.94508 11.2283 6.41499 11.7555 6.03939C12.2827 5.66378 12.9136 5.46121 13.561 5.45965C14.2083 5.4581 14.8402 5.65764 15.3692 6.03071C15.8982 6.40378 16.2983 6.93196 16.5142 7.54225C16.7301 8.15254 16.7511 8.81481 16.5743 9.43755C16.3975 10.0603 16.0317 10.6128 15.5273 11.0186Z" fill="#204F97"/>
<path d="M22.0703 3.125H4.49219C4.1815 3.12536 3.88364 3.24894 3.66395 3.46863C3.44426 3.68832 3.32067 3.98619 3.32031 4.29688V12.8906C3.32067 13.2013 3.44426 13.4992 3.66395 13.7189C3.88364 13.9386 4.1815 14.0621 4.49219 14.0625H11.6213V13.2812H7.20352C7.11381 12.4895 6.75816 11.7516 6.19471 11.1881C5.63126 10.6247 4.89334 10.269 4.10156 10.1793V7.0082C4.89334 6.91849 5.63126 6.56285 6.19471 5.9994C6.75816 5.43595 7.11381 4.69802 7.20352 3.90625H19.359C19.4487 4.69802 19.8043 5.43595 20.3678 5.9994C20.9312 6.56285 21.6692 6.91849 22.4609 7.0082V10.1793C21.6692 10.269 20.9312 10.6247 20.3678 11.1881C19.8043 11.7516 19.4487 12.4895 19.359 13.2812H17.5488C17.9012 13.4511 18.194 13.7234 18.3891 14.0625H22.0703C22.381 14.0621 22.6789 13.9386 22.8986 13.7189C23.1182 13.4992 23.2418 13.2013 23.2422 12.8906V4.29688C23.2418 3.98619 23.1182 3.68832 22.8986 3.46863C22.6789 3.24894 22.381 3.12536 22.0703 3.125ZM6.41406 13.2812H4.49219C4.38863 13.2811 4.28937 13.2399 4.21614 13.1667C4.14292 13.0934 4.10172 12.9942 4.10156 12.8906V10.9687C4.68465 11.0538 5.2247 11.3248 5.64136 11.7415C6.05802 12.1581 6.32903 12.6982 6.41406 13.2812ZM4.10156 6.21875V4.29688C4.10172 4.19332 4.14292 4.09406 4.21614 4.02083C4.28937 3.94761 4.38863 3.9064 4.49219 3.90625H6.41406C6.32903 4.48933 6.05802 5.02938 5.64136 5.44605C5.2247 5.86271 4.68465 6.13372 4.10156 6.21875ZM22.4609 12.8906C22.4608 12.9942 22.4196 13.0934 22.3464 13.1667C22.2731 13.2399 22.1739 13.2811 22.0703 13.2812H20.1484C20.2335 12.6982 20.5045 12.1581 20.9211 11.7415C21.3378 11.3248 21.8779 11.0538 22.4609 10.9687V12.8906ZM22.4609 6.21875C21.8779 6.13372 21.3378 5.86271 20.9211 5.44605C20.5045 5.02938 20.2335 4.48933 20.1484 3.90625H22.0703C22.1739 3.9064 22.2731 3.94761 22.3464 4.02083C22.4196 4.09406 22.4608 4.19332 22.4609 4.29688V6.21875Z" fill="#204F97"/>
<path d="M13.6012 6.25625C13.5363 6.2564 13.4741 6.28218 13.428 6.32797C13.382 6.37376 13.356 6.43587 13.3555 6.50078V6.79688C12.6719 6.86973 12.3727 7.26953 12.3727 7.73203C12.3727 8.24961 12.7057 8.49356 13.0961 8.65547C13.4129 8.57332 13.7454 8.57318 14.0623 8.65505C14.3791 8.73692 14.6699 8.89811 14.9073 9.12344C14.6514 8.13984 12.9924 8.36035 12.9924 7.73203C12.9924 7.52441 13.1576 7.32168 13.6012 7.32168C13.8757 7.3187 14.1417 7.41671 14.3487 7.59707C14.4084 7.66231 14.4903 7.70303 14.5783 7.71133C14.653 7.71285 14.7253 7.68473 14.7793 7.63313C14.8333 7.58152 14.8647 7.51062 14.8666 7.43594C14.866 7.37633 14.8474 7.31831 14.8131 7.26953C14.6921 7.13159 14.5448 7.01919 14.3798 6.9389C14.2148 6.85861 14.0354 6.81205 13.8522 6.80195V6.50078C13.8518 6.46823 13.845 6.43608 13.8322 6.40617C13.8193 6.37625 13.8007 6.34916 13.7774 6.32644C13.7541 6.30373 13.7265 6.28584 13.6963 6.27379C13.6661 6.26175 13.6337 6.25579 13.6012 6.25625Z" fill="#204F97"/>
<path d="M12.207 24.2188H3.32031C3.11311 24.2188 2.9144 24.1364 2.76789 23.9899C2.62137 23.8434 2.53906 23.6447 2.53906 23.4375V1.5625C2.53906 1.3553 2.62137 1.15659 2.76789 1.01007C2.9144 0.86356 3.11311 0.78125 3.32031 0.78125H5.91914L6.64961 2.13828C6.68308 2.20045 6.73277 2.25239 6.7934 2.28857C6.85403 2.32475 6.92334 2.34382 6.99394 2.34375H10.7799C10.8504 2.34375 10.9196 2.32465 10.9802 2.28847C11.0408 2.25229 11.0904 2.20039 11.1238 2.13828L11.8543 0.78125H14.2578C14.465 0.78125 14.6637 0.86356 14.8102 1.01007C14.9568 1.15659 15.0391 1.3553 15.0391 1.5625V2.34375H15.8203V1.5625C15.8198 1.14824 15.6551 0.751084 15.3622 0.45816C15.0692 0.165235 14.6721 0.000465256 14.2578 0L3.32031 0C2.90605 0.000465256 2.5089 0.165235 2.21597 0.45816C1.92305 0.751084 1.75828 1.14824 1.75781 1.5625V23.4375C1.75833 23.8517 1.92312 24.2489 2.21603 24.5418C2.50894 24.8347 2.90607 24.9995 3.32031 25H12.2754C12.2304 24.8747 12.2073 24.7425 12.207 24.6094V24.2188ZM10.967 0.78125L10.5465 1.5625H7.22695L6.80645 0.78125H10.967Z" fill="#204F97"/>
<path d="M18.2618 14.8437C18.1262 14.844 17.9917 14.868 17.8643 14.9146C17.846 14.7385 17.7879 14.5689 17.6944 14.4185C17.6009 14.2681 17.4745 14.141 17.3246 14.0467C17.1748 13.9524 17.0054 13.8934 16.8294 13.8741C16.6534 13.8549 16.4753 13.8759 16.3086 13.9355V13.8672C16.3092 13.6796 16.2645 13.4946 16.1785 13.3278C16.0924 13.1611 15.9675 13.0175 15.8142 12.9093C15.661 12.8011 15.4839 12.7313 15.298 12.706C15.1121 12.6806 14.9228 12.7004 14.7461 12.7637V10.5469C14.7481 10.3917 14.7193 10.2377 14.6613 10.0938C14.6033 9.94986 14.5173 9.81889 14.4083 9.70846C14.2993 9.59804 14.1695 9.51036 14.0263 9.45052C13.8831 9.39068 13.7295 9.35986 13.5744 9.35986C13.4192 9.35986 13.2656 9.39068 13.1224 9.45052C12.9793 9.51036 12.8494 9.59804 12.7404 9.70846C12.6314 9.81889 12.5454 9.94986 12.4874 10.0938C12.4294 10.2377 12.4006 10.3917 12.4026 10.5469V16.3078C12.0421 15.9646 11.6836 15.6193 11.327 15.2721C11.1031 15.0636 10.8087 14.9474 10.5028 14.9467C10.304 14.9481 10.1086 14.9977 9.9333 15.0914C9.75799 15.185 9.60804 15.3198 9.49634 15.4842C9.3409 15.7229 9.26602 16.0051 9.28268 16.2894C9.29934 16.5738 9.40666 16.8453 9.58891 17.0643L12.1086 19.9863C12.3375 20.2738 12.538 20.5828 12.7073 20.909C12.994 21.4602 13.1921 22.0531 13.2942 22.666C13.2075 22.6852 13.1299 22.7335 13.0743 22.8027C13.0187 22.8719 12.9884 22.9581 12.9883 23.0469V24.6094C12.9883 24.713 13.0295 24.8123 13.1027 24.8856C13.176 24.9588 13.2754 25 13.379 25H18.4571C18.5607 25 18.66 24.9588 18.7333 24.8856C18.8065 24.8123 18.8477 24.713 18.8477 24.6094V23.0469C18.8477 22.9433 18.8065 22.8439 18.7333 22.7707C18.66 22.6974 18.5607 22.6562 18.4571 22.6562H18.2997C18.3763 22.2495 18.5212 21.8586 18.7282 21.5002C18.7417 21.4795 18.7541 21.4581 18.7655 21.4361C19.3575 20.4258 19.4336 19.1576 19.4336 18.1641V16.0156C19.4333 15.7049 19.3097 15.4071 19.09 15.1874C18.8703 14.9677 18.5725 14.8441 18.2618 14.8437ZM18.0665 24.2187H13.7696V23.4375H18.0665V24.2187ZM18.6524 18.1641C18.6524 19.0617 18.5879 20.201 18.0786 21.0664C18.0723 21.0746 18.0668 21.0834 18.0616 21.0924C17.7827 21.5754 17.5947 22.1054 17.5069 22.6562H14.0827C13.9739 21.9202 13.7432 21.2075 13.3999 20.5475C13.205 20.1724 12.9739 19.8173 12.7098 19.4873L10.1903 16.5658C10.1154 16.4785 10.0701 16.3698 10.061 16.2551C10.0519 16.1405 10.0795 16.0259 10.1397 15.9279C10.1792 15.8673 10.233 15.8174 10.2963 15.7825C10.3597 15.7476 10.4307 15.7289 10.503 15.7279C10.6091 15.7276 10.7115 15.7673 10.7897 15.8391C12.6666 17.6662 12.6666 17.6656 12.9446 17.5488C13.0154 17.5186 13.0759 17.4683 13.1184 17.4041C13.1609 17.3398 13.1837 17.2645 13.1838 17.1875V10.5469C13.1827 10.4948 13.1919 10.4431 13.211 10.3947C13.2301 10.3463 13.2587 10.3022 13.2951 10.265C13.3315 10.2278 13.3749 10.1983 13.4229 10.1781C13.4708 10.1579 13.5223 10.1475 13.5744 10.1475C13.6264 10.1475 13.6779 10.1579 13.7259 10.1781C13.7738 10.1983 13.8173 10.2278 13.8536 10.265C13.89 10.3022 13.9186 10.3463 13.9377 10.3947C13.9568 10.4431 13.9661 10.4948 13.9649 10.5469V17.3828C13.9649 17.4864 14.006 17.5858 14.0793 17.659C14.1526 17.7323 14.2519 17.7734 14.3555 17.7734C14.4591 17.7734 14.5585 17.7323 14.6317 17.659C14.705 17.5858 14.7461 17.4864 14.7461 17.3828V13.8672C14.7461 13.7636 14.7873 13.6642 14.8606 13.591C14.9338 13.5177 15.0332 13.4766 15.1368 13.4766C15.2404 13.4766 15.3397 13.5177 15.413 13.591C15.4862 13.6642 15.5274 13.7636 15.5274 13.8672V17.3828C15.5274 17.4864 15.5685 17.5858 15.6418 17.659C15.7151 17.7323 15.8144 17.7734 15.918 17.7734C16.0216 17.7734 16.121 17.7323 16.1942 17.659C16.2675 17.5858 16.3086 17.4864 16.3086 17.3828V15.0391C16.3086 14.9355 16.3498 14.8361 16.4231 14.7628C16.4963 14.6896 16.5957 14.6484 16.6993 14.6484C16.8029 14.6484 16.9022 14.6896 16.9755 14.7628C17.0487 14.8361 17.0899 14.9355 17.0899 15.0391V17.3828C17.0899 17.4864 17.131 17.5858 17.2043 17.659C17.2776 17.7323 17.3769 17.7734 17.4805 17.7734C17.5841 17.7734 17.6835 17.7323 17.7567 17.659C17.83 17.5858 17.8711 17.4864 17.8711 17.3828V16.0156C17.8711 15.912 17.9123 15.8127 17.9856 15.7394C18.0588 15.6661 18.1582 15.625 18.2618 15.625C18.3654 15.625 18.4647 15.6661 18.538 15.7394C18.6112 15.8127 18.6524 15.912 18.6524 16.0156V18.1641Z" fill="#204F97"/>
</svg>
