<svg width="31" height="31" viewBox="0 0 31 31" fill="none" xmlns="http://www.w3.org/2000/svg">
<path d="M22.0625 9.04492C22.0625 13.152 18.9767 16.4199 15.25 16.4199C11.5233 16.4199 8.4375 13.152 8.4375 9.04492C8.4375 4.93787 11.5233 1.66992 15.25 1.66992C18.9767 1.66992 22.0625 4.93787 22.0625 9.04492ZM15.25 20.0449C16.6099 20.0449 17.9023 19.7277 19.0672 19.1699H21.75C25.0298 19.1699 27.75 22.0441 27.75 25.6699V26.5449C27.75 27.7535 26.8478 28.6699 25.8125 28.6699H4.6875C3.65219 28.6699 2.75 27.7535 2.75 26.5449V25.6699C2.75 22.0441 5.47016 19.1699 8.75 19.1699H11.4333C12.6018 19.7274 13.8894 20.0449 15.25 20.0449Z" stroke="#204F97"/>
</svg>
