<svg width="21" height="18" viewBox="0 0 21 18" fill="none" xmlns="http://www.w3.org/2000/svg">
<path d="M10.9167 17H9.58333C9.032 17 8.58333 16.5513 8.58333 16V14.7587C8.15662 14.6353 7.74505 14.4646 7.35633 14.2497L6.47833 15.128C6.10033 15.506 5.442 15.5053 5.064 15.128L4.121 14.1853C3.932 13.9967 3.828 13.7453 3.828 13.4783C3.828 13.2113 3.932 12.96 4.121 12.7713L4.99933 11.8927C4.78439 11.5043 4.61387 11.0929 4.491 10.6663H3.25C2.69867 10.6663 2.25 10.2177 2.25 9.66633V8.333C2.25 8.06567 2.354 7.81467 2.54267 7.626C2.63537 7.53286 2.74561 7.45901 2.86701 7.40872C2.98842 7.35843 3.11859 7.33269 3.25 7.333H4.49133C4.61467 6.907 4.78467 6.496 5 6.10667L4.122 5.22833C3.93469 5.04072 3.82949 4.78644 3.82949 4.52133C3.82949 4.25622 3.93469 4.00195 4.122 3.81433L5.06467 2.87133C5.44233 2.494 6.101 2.49333 6.479 2.87133L7.35733 3.74967C7.74576 3.53501 8.15698 3.36451 8.58333 3.24133V2C8.58333 1.44867 9.032 1 9.58333 1H10.9167C11.468 1 11.9167 1.44867 11.9167 2V3.24133C12.3433 3.36467 12.754 3.535 13.1427 3.74967L14.021 2.87133C14.399 2.494 15.0573 2.49333 15.4353 2.87133L16.3783 3.814C16.5673 4.00267 16.6713 4.254 16.6713 4.521C16.6713 4.788 16.5673 5.03933 16.3783 5.228L15.5003 6.10633C15.7153 6.49485 15.886 6.90633 16.009 7.333H17.25C17.8013 7.333 18.25 7.78167 18.25 8.333V9.66633C18.25 9.93367 18.146 10.1847 17.9573 10.3733C17.7687 10.562 17.5173 10.6663 17.25 10.6663H16.0087C15.8854 11.0929 15.7148 11.5044 15.5 11.893L16.378 12.7713C16.5653 12.9589 16.6705 13.2132 16.6705 13.4783C16.6705 13.7434 16.5653 13.9977 16.378 14.1853L15.4353 15.1283C15.0573 15.506 14.399 15.506 14.021 15.1283L13.1433 14.25C12.7548 14.4648 12.3435 14.6354 11.917 14.7587V16C11.9166 16.2651 11.811 16.5193 11.6235 16.7067C11.436 16.8942 11.1818 16.9996 10.9167 17ZM7.30233 13.4993C7.362 13.4993 7.42233 13.5153 7.476 13.548C7.94639 13.836 8.45891 14.0487 8.995 14.1783C9.06769 14.1959 9.13235 14.2374 9.1786 14.2962C9.22485 14.3549 9.25 14.4276 9.25 14.5023V16C9.25 16.184 9.39967 16.3333 9.58333 16.3333H10.9167C11.1003 16.3333 11.25 16.184 11.25 16V14.5023C11.25 14.4276 11.2751 14.3549 11.3214 14.2962C11.3676 14.2374 11.4323 14.1959 11.505 14.1783C12.041 14.0487 12.5534 13.8362 13.0237 13.5483C13.1557 13.468 13.3243 13.4883 13.4333 13.597L14.4927 14.6567C14.6177 14.7813 14.839 14.782 14.9643 14.6567L15.907 13.7137C15.9695 13.6512 16.0046 13.5664 16.0046 13.478C16.0046 13.3896 15.9695 13.3048 15.907 13.2423L14.8473 12.1827C14.7944 12.1298 14.7608 12.0606 14.752 11.9863C14.7432 11.912 14.7596 11.8368 14.7987 11.773C15.0865 11.3027 15.2989 10.7903 15.4283 10.2543C15.4458 10.1816 15.4873 10.1168 15.5461 10.0705C15.6049 10.0242 15.6775 9.99902 15.7523 9.999H17.25C17.2938 9.99918 17.3371 9.9907 17.3776 9.97405C17.4181 9.9574 17.4549 9.93291 17.4859 9.902C17.5168 9.87108 17.5414 9.83434 17.5581 9.7939C17.5749 9.75345 17.5834 9.7101 17.5833 9.66633V8.333C17.5833 8.149 17.4337 7.99967 17.25 7.99967H15.7523C15.6775 7.99971 15.6048 7.97454 15.546 7.92821C15.4873 7.88189 15.4458 7.81711 15.4283 7.74433C15.299 7.20836 15.0865 6.69593 14.7987 6.22567C14.7596 6.16183 14.7432 6.08671 14.752 6.0124C14.7608 5.93809 14.7944 5.86891 14.8473 5.816L15.907 4.75633C15.969 4.694 16.0047 4.60833 16.0047 4.52067C16.0047 4.433 15.969 4.347 15.907 4.285L14.964 3.34233C14.9004 3.28186 14.8159 3.24814 14.7282 3.24814C14.6404 3.24814 14.556 3.28186 14.4923 3.34233L13.4327 4.402C13.3799 4.45518 13.3107 4.48894 13.2363 4.49778C13.1619 4.50662 13.0867 4.49001 13.023 4.45067C12.5529 4.16295 12.0407 3.9505 11.505 3.821C11.4323 3.80361 11.3677 3.76225 11.3214 3.70359C11.2751 3.64492 11.25 3.57238 11.25 3.49767V2C11.25 1.816 11.1003 1.66667 10.9167 1.66667H9.58333C9.39967 1.66667 9.25 1.816 9.25 2V3.49767C9.25 3.57245 9.22485 3.64506 9.1786 3.70382C9.13235 3.76259 9.06769 3.80409 8.995 3.82167C8.45906 3.95115 7.94666 4.1636 7.47633 4.45133C7.41257 4.49042 7.33749 4.50687 7.26322 4.49804C7.18895 4.48921 7.11983 4.45561 7.067 4.40267L6.00733 3.343C5.94371 3.28253 5.85928 3.24881 5.7715 3.24881C5.68372 3.24881 5.59929 3.28253 5.53567 3.343L4.59333 4.28567C4.53084 4.34818 4.49574 4.43295 4.49574 4.52133C4.49574 4.60972 4.53084 4.69449 4.59333 4.757L5.653 5.81667C5.70592 5.86958 5.7395 5.93876 5.74832 6.01307C5.75715 6.08738 5.74072 6.1625 5.70167 6.22633C5.41388 6.69651 5.20142 7.20882 5.072 7.74467C5.05449 7.81742 5.01301 7.88216 4.95424 7.92847C4.89547 7.97479 4.82283 7.99998 4.748 8H3.25C3.2062 7.99982 3.16281 8.00831 3.12231 8.02498C3.08181 8.04165 3.04501 8.06617 3.01402 8.09712C2.98304 8.12807 2.95849 8.16485 2.94178 8.20533C2.92507 8.24582 2.91653 8.28921 2.91667 8.333V9.66633C2.91667 9.85033 3.06633 9.99967 3.25 9.99967H4.74767C4.90167 9.99967 5.03567 10.105 5.07167 10.255C5.20114 10.7908 5.4136 11.3031 5.70133 11.7733C5.74038 11.8372 5.75682 11.9123 5.74799 11.9866C5.73916 12.0609 5.70559 12.1301 5.65267 12.183L4.593 13.243C4.531 13.3053 4.49533 13.391 4.49533 13.4787C4.49533 13.5663 4.531 13.6523 4.593 13.7143L5.536 14.657C5.59963 14.7175 5.68405 14.7512 5.77183 14.7512C5.85961 14.7512 5.94404 14.7175 6.00767 14.657L7.067 13.5973C7.09777 13.5662 7.13442 13.5415 7.17482 13.5247C7.21522 13.5079 7.25857 13.4992 7.30233 13.4993Z" fill="black"/>
<path d="M10.25 12.2941C8.43362 12.2941 6.95588 10.8164 6.95588 9C6.95588 7.18362 8.43362 5.70588 10.25 5.70588C12.0664 5.70588 13.5441 7.18362 13.5441 9C13.5441 10.8164 12.0667 12.2941 10.25 12.2941ZM10.25 6.36471C8.79696 6.36471 7.61471 7.54696 7.61471 9C7.61471 10.453 8.79696 11.6353 10.25 11.6353C11.703 11.6353 12.8853 10.453 12.8853 9C12.8853 7.54696 11.7034 6.36471 10.25 6.36471Z" fill="black"/>
</svg>
