<svg width="20" height="17" viewBox="0 0 20 17" fill="none" xmlns="http://www.w3.org/2000/svg">
<path d="M10.1 6V6.4H10.5H11.1V6.6H9.9V4.9H10.1V6ZM15.3328 4.33407L15.3329 4.33413C15.4996 4.44519 15.6 4.63272 15.6 4.83344V16.1H12.4V12C12.4 11.5028 11.9972 11.1 11.5 11.1H8.5C8.00284 11.1 7.6 11.5028 7.6 12V16.1H4.4V4.83321C4.4 4.83319 4.4 4.83316 4.4 4.83313C4.40004 4.73439 4.42443 4.63719 4.47103 4.55015C4.51764 4.46308 4.58502 4.38885 4.6672 4.33407L9.66705 1.00073C9.6671 1.0007 9.66715 1.00066 9.6672 1.00063C9.76578 0.93501 9.88157 0.9 10 0.9C10.1184 0.9 10.2342 0.935012 10.3328 1.00063C10.3329 1.00067 10.3329 1.0007 10.333 1.00073L15.3328 4.33407ZM0.4 16V7.5C0.4 7.16873 0.668726 6.9 1 6.9H2.6V16.1H0.5C0.444663 16.1 0.4 16.0553 0.4 16ZM7.1 6C7.1 7.60154 8.39846 8.9 10 8.9C11.6015 8.9 12.9 7.60154 12.9 6C12.9 4.39846 11.6015 3.1 10 3.1C8.39846 3.1 7.1 4.39846 7.1 6ZM17.4 16.1V6.9H19C19.3313 6.9 19.6 7.16873 19.6 7.5V16C19.6 16.0553 19.5553 16.1 19.5 16.1H17.4Z" stroke="black" stroke-width="0.8"/>
</svg>
