<svg width="12" height="17" viewBox="0 0 12 17" fill="none" xmlns="http://www.w3.org/2000/svg">
<path d="M9.66624 1.91624L9.91372 1.66875L9.66624 1.42126L9.13975 0.894782C9.13959 0.894625 9.13944 0.894469 9.13929 0.894315C9.13517 0.890057 9.13343 0.887071 9.1327 0.885641C9.13189 0.884067 9.13145 0.882675 9.1312 0.881181C9.13062 0.877827 9.13075 0.871885 9.13363 0.864902C9.13651 0.857933 9.14037 0.854186 9.14236 0.852783C9.14322 0.852177 9.14411 0.851702 9.14542 0.851284C9.14664 0.850897 9.14995 0.85 9.15625 0.85H11.625C11.6308 0.85 11.6368 0.852051 11.6424 0.857644C11.6479 0.863236 11.65 0.869214 11.65 0.875V3.34375C11.65 3.35006 11.6491 3.35349 11.6486 3.35492C11.6485 3.35533 11.6484 3.35571 11.6482 3.35607C11.6478 3.35704 11.6474 3.35786 11.6468 3.35864C11.6451 3.36109 11.6411 3.36504 11.6343 3.36788C11.6275 3.37072 11.6221 3.37069 11.6195 3.37024C11.6184 3.37005 11.6173 3.36971 11.6159 3.369C11.6146 3.36834 11.6115 3.36651 11.6069 3.36189L11.0787 2.83376L10.8313 2.58628L10.5838 2.83376L8.06189 5.35564L7.86419 5.55333L8.01333 5.78982C8.4166 6.42929 8.65 7.18671 8.65 8C8.65 9.97331 7.27002 11.6254 5.42227 12.0462L5.15 12.1083V12.3875V13.25V13.6H5.5H6.625C6.63079 13.6 6.63676 13.6021 6.64236 13.6076C6.64795 13.6132 6.65 13.6192 6.65 13.625V14.875C6.65 14.8808 6.64795 14.8868 6.64236 14.8924C6.63676 14.8979 6.63079 14.9 6.625 14.9H5.5H5.15V15.25V16.125C5.15 16.1308 5.14795 16.1368 5.14236 16.1424C5.13676 16.1479 5.13079 16.15 5.125 16.15H3.875C3.86921 16.15 3.86324 16.1479 3.85764 16.1424C3.85205 16.1368 3.85 16.1308 3.85 16.125V15.25V14.9H3.5H2.375C2.36921 14.9 2.36324 14.8979 2.35764 14.8924C2.35205 14.8868 2.35 14.8808 2.35 14.875V13.625C2.35 13.6192 2.35205 13.6132 2.35764 13.6076C2.36324 13.6021 2.36921 13.6 2.375 13.6H3.5H3.85V13.25V12.3875V12.1078L3.57722 12.0461C1.7303 11.6283 0.35 9.9737 0.35 8C0.35 5.70892 2.20892 3.85 4.5 3.85C5.31329 3.85 6.07071 4.0834 6.71018 4.48667L6.94667 4.63581L7.14436 4.43811L9.66624 1.91624ZM1.65 8C1.65 9.57142 2.92858 10.85 4.5 10.85C6.07142 10.85 7.35 9.57142 7.35 8C7.35 6.42858 6.07142 5.15 4.5 5.15C2.92858 5.15 1.65 6.42858 1.65 8Z" stroke="black" stroke-width="0.7"/>
</svg>
