<svg width="81" height="35" viewBox="0 0 81 35" fill="none" xmlns="http://www.w3.org/2000/svg">
<rect x="0.5" y="0.5" width="80" height="34" rx="17" fill="url(#paint0_linear_90_910)"/>
<rect x="0.5" y="0.5" width="80" height="34" rx="17" stroke="black"/>
<path d="M17.5 12.8125C14.917 12.8125 12.8125 14.917 12.8125 17.5C12.8125 20.083 14.917 22.1875 17.5 22.1875C20.083 22.1875 22.1875 20.083 22.1875 17.5C22.1875 14.917 20.083 12.8125 17.5 12.8125ZM29.5312 16.7432L24.9072 14.4336L26.543 9.53125C26.7627 8.86719 26.1328 8.2373 25.4736 8.46191L20.5713 10.0977L18.2568 5.46875C17.9443 4.84375 17.0557 4.84375 16.7432 5.46875L14.4336 10.0928L9.52637 8.45703C8.8623 8.2373 8.23242 8.86719 8.45703 9.52637L10.0928 14.4287L5.46875 16.7432C4.84375 17.0557 4.84375 17.9443 5.46875 18.2568L10.0928 20.5664L8.45703 25.4736C8.2373 26.1377 8.86719 26.7676 9.52637 26.543L14.4287 24.9072L16.7383 29.5312C17.0508 30.1562 17.9395 30.1562 18.252 29.5312L20.5615 24.9072L25.4639 26.543C26.1279 26.7627 26.7578 26.1328 26.5332 25.4736L24.8975 20.5713L29.5215 18.2617C30.1562 17.9443 30.1562 17.0557 29.5312 16.7432ZM21.9189 21.9189C19.4824 24.3555 15.5176 24.3555 13.0811 21.9189C10.6445 19.4824 10.6445 15.5176 13.0811 13.0811C15.5176 10.6445 19.4824 10.6445 21.9189 13.0811C24.3555 15.5176 24.3555 19.4824 21.9189 21.9189Z" fill="#FFA500"/>
<defs>
<linearGradient id="paint0_linear_90_910" x1="127.345" y1="-3.8889" x2="-50.7988" y2="53.2241" gradientUnits="userSpaceOnUse">
<stop stop-color="#EEBA00"/>
<stop offset="0.126863" stop-color="#F0C220" stop-opacity="0.873137"/>
<stop offset="1" stop-color="white" stop-opacity="0"/>
</linearGradient>
</defs>
</svg>
