<svg width="20" height="18" viewBox="0 0 20 18" fill="none" xmlns="http://www.w3.org/2000/svg">
<path d="M2.78778 16.5976L2.78703 16.5977C2.56531 16.6227 2.37728 16.4347 2.40231 16.213L2.40239 16.2122L2.78314 12.7818L11.068 4.49698L14.503 7.93201L6.21817 16.2169L2.78778 16.5976ZM15.4052 1.72138L17.2825 3.59864C17.7104 4.02653 17.7118 4.72389 17.2819 5.157C17.2818 5.15711 17.2817 5.15723 17.2815 5.15734L15.9381 6.50078L12.5031 3.06575L13.8465 1.72231C13.8467 1.72217 13.8468 1.72202 13.8469 1.72188C14.2801 1.29205 14.9774 1.29352 15.4052 1.72138ZM12.4857 3.04834C12.4857 3.04836 12.4857 3.04839 12.4857 3.04841L12.4857 3.04834Z" stroke="#204F97" stroke-width="0.8"/>
</svg>
