<svg width="30" height="31" viewBox="0 0 30 31" fill="none" xmlns="http://www.w3.org/2000/svg">
<path d="M15 0.5C6.71371 0.5 0 7.21371 0 15.5C0 23.7863 6.71371 30.5 15 30.5C23.2863 30.5 30 23.7863 30 15.5C30 7.21371 23.2863 0.5 15 0.5ZM15 6.30645C17.9395 6.30645 20.3226 8.68952 20.3226 11.629C20.3226 14.5685 17.9395 16.9516 15 16.9516C12.0605 16.9516 9.67742 14.5685 9.67742 11.629C9.67742 8.68952 12.0605 6.30645 15 6.30645ZM15 27.1129C11.4496 27.1129 8.26814 25.504 6.13911 22.9879C7.27621 20.8468 9.50202 19.371 12.0968 19.371C12.2419 19.371 12.3871 19.3952 12.5262 19.4375C13.3125 19.6915 14.1351 19.8548 15 19.8548C15.8649 19.8548 16.6935 19.6915 17.4738 19.4375C17.6129 19.3952 17.7581 19.371 17.9032 19.371C20.498 19.371 22.7238 20.8468 23.8609 22.9879C21.7319 25.504 18.5504 27.1129 15 27.1129Z" fill="#204F97"/>
</svg>
